<svg width="155.200012" height="40.000000" viewBox="0 0 155.2 40" fill="none" xmlns="http://www.w3.org/2000/svg" xmlns:xlink="http://www.w3.org/1999/xlink">
	<desc>
			Created with Pixso.
	</desc>
	<defs>
		<clipPath id="clip18_41">
			<rect id="logo-name" width="155.199997" height="40.000000" fill="white" fill-opacity="0"/>
		</clipPath>
		<linearGradient x1="4.000008" y1="19.999969" x2="160.799988" y2="19.999969" id="paint_linear_18_42_0" gradientUnits="userSpaceOnUse">
			<stop stop-color="#3437FF"/>
			<stop offset="1.000000" stop-color="#7578FE"/>
		</linearGradient>
	</defs>
	<g clip-path="url(#clip18_41)">
		<path id="path" d="M2.29 32.89L2.29 5.4L0 5.4L0 0L7.97 0L7.97 5.4L5.69 5.4L5.69 32.89L2.29 32.89ZM8.52 40L8.52 27.69L8.95 27.69C9.24 27.5 9.5 27.18 9.74 26.72C9.99 26.23 10.22 25.58 10.42 24.77C10.62 23.95 10.8 22.94 10.97 21.72C11.13 20.5 11.27 19.05 11.38 17.38C11.5 15.67 11.59 13.71 11.66 11.49L12.08 0L19.18 0L19.18 27.69L20.9 27.69L20.9 40L18.67 40L18.5 32.89L11.02 32.89L10.84 40L8.52 40ZM12.14 27.69L16.04 27.69L16.04 5.15L14.62 5.15L14.45 12.22C14.39 14.55 14.3 16.52 14.17 18.15C14.06 19.77 13.92 21.13 13.76 22.21C13.61 23.26 13.44 24.13 13.27 24.81C13.09 25.48 12.9 26.04 12.7 26.47C12.51 26.91 12.32 27.31 12.14 27.69ZM27.25 32.89L27.25 0L34.32 0L34.32 5.4L30.63 5.4L30.63 32.89L27.25 32.89ZM35.97 32.89L35.97 0L38.63 0L38.63 18.84L42.53 0L44.72 0L44.72 32.89L42 32.89L42 13.72L38.03 32.89L35.97 32.89ZM46.24 40L46.24 27.69L46.67 27.69C46.96 27.5 47.23 27.18 47.47 26.72C47.72 26.23 47.94 25.58 48.14 24.77C48.35 23.95 48.53 22.94 48.69 21.72C48.85 20.5 48.99 19.05 49.11 17.38C49.22 15.67 49.31 13.71 49.39 11.49L49.8 0L56.91 0L56.91 27.69L58.62 27.69L58.62 40L56.4 40L56.23 32.89L48.75 32.89L48.56 40L46.24 40ZM49.86 27.69L53.76 27.69L53.76 5.15L52.35 5.15L52.18 12.22C52.11 14.55 52.02 16.52 51.89 18.15C51.78 19.77 51.64 21.13 51.48 22.21C51.33 23.26 51.17 24.13 50.99 24.81C50.81 25.48 50.63 26.04 50.42 26.47C50.24 26.91 50.05 27.31 49.86 27.69ZM60.1 32.89L60.1 0L65.22 0C66.14 0 66.89 0.37 67.48 1.13C68.08 1.86 68.51 2.95 68.8 4.38C69.09 5.79 69.24 7.51 69.24 9.54C69.24 12.08 69.04 14.03 68.65 15.39C68.26 16.71 67.74 17.63 67.07 18.15C66.4 18.66 65.66 18.92 64.83 18.92L63.47 18.92L63.47 32.89L60.1 32.89ZM63.47 13.84L64.6 13.84C65.02 13.84 65.33 13.68 65.54 13.36C65.76 13.03 65.9 12.54 65.96 11.89C66.03 11.24 66.07 10.42 66.07 9.42C66.07 8.58 66.04 7.85 65.98 7.22C65.93 6.57 65.79 6.06 65.58 5.68C65.37 5.3 65.03 5.11 64.58 5.11L63.47 5.11L63.47 13.84ZM69.82 32.89L72.7 0L76.54 0L79.39 32.89L76.28 32.89L75.77 25.94L73.53 25.94L73 32.89L69.82 32.89ZM73.83 21.6L75.45 21.6L74.64 8.77L73.83 21.6ZM80.93 32.89L80.93 0L84.9 0C85.56 0 86.17 0.1 86.75 0.32C87.34 0.54 87.86 0.96 88.32 1.58C88.77 2.17 89.12 3.04 89.37 4.18C89.63 5.29 89.77 6.76 89.77 8.6C89.77 9.93 89.67 11.05 89.48 11.97C89.31 12.87 89.05 13.59 88.71 14.13C88.38 14.67 87.99 15.03 87.52 15.22C88.11 15.39 88.61 15.81 89.01 16.48C89.41 17.13 89.72 18.01 89.92 19.12C90.13 20.23 90.24 21.57 90.24 23.14C90.24 24.85 90.13 26.32 89.92 27.57C89.72 28.79 89.42 29.79 89.03 30.57C88.64 31.36 88.16 31.94 87.58 32.32C87.02 32.7 86.36 32.89 85.62 32.89L80.93 32.89ZM84.3 27.81L85.02 27.81C85.76 27.81 86.27 27.41 86.54 26.59C86.83 25.78 86.98 24.59 86.98 23.02C86.98 21.78 86.91 20.79 86.79 20.06C86.66 19.32 86.46 18.8 86.17 18.47C85.88 18.12 85.49 17.94 85 17.94L84.3 17.94L84.3 27.81ZM84.3 13.15L84.96 13.15C85.48 13.15 85.87 12.99 86.13 12.67C86.39 12.31 86.57 11.81 86.66 11.16C86.76 10.51 86.81 9.73 86.81 8.81C86.81 7.94 86.73 7.22 86.58 6.65C86.44 6.06 86.23 5.61 85.94 5.31C85.66 5.02 85.31 4.87 84.89 4.87L84.3 4.87L84.3 13.15ZM91.01 32.89L91.01 27.77C91.44 27.77 91.78 27.72 92.04 27.61C92.31 27.47 92.52 27.18 92.67 26.72C92.82 26.26 92.94 25.55 93.02 24.6C93.11 23.66 93.18 22.38 93.23 20.79C93.29 19.19 93.37 17.16 93.46 14.7L93.95 0L102.03 0L102.03 32.89L98.68 32.89L98.68 5.56L97 5.56L96.7 16.08C96.61 18.78 96.52 21.13 96.43 23.1C96.35 25.05 96.2 26.69 96 28.02C95.81 29.34 95.52 30.38 95.13 31.14C94.76 31.87 94.24 32.37 93.57 32.64C92.9 32.92 92.05 33 91.01 32.89ZM104.43 32.89L104.43 0L107.09 0L107.09 18.84L110.99 0L113.17 0L113.17 32.89L110.46 32.89L110.46 13.72L106.48 32.89L104.43 32.89ZM115.54 32.89L115.54 0L118.92 0L118.92 13.03L119.26 13.03L121.5 0L124.85 0L122.06 15.43L124.95 32.89L121.48 32.89L119.26 18.55L118.92 18.55L118.92 32.89L115.54 32.89ZM125.54 32.89L128.42 0L132.26 0L135.11 32.89L132 32.89L131.49 25.94L129.25 25.94L128.72 32.89L125.54 32.89ZM129.55 21.6L131.17 21.6L130.36 8.77L129.55 21.6ZM136.72 20.75L136.72 16.52L141.61 16.52L141.61 20.75L136.72 20.75ZM143.86 32.89L144.13 0L147.74 0L149.42 19.12L151.23 0L154.71 0L154.98 32.89L152.59 32.89L152.3 11L150.53 32.89L148.4 32.89L146.52 10.84L146.29 32.89L143.86 32.89Z" fill="url(#paint_linear_18_42_0)" fill-opacity="1.000000" fill-rule="nonzero"/>
	</g>
</svg>
