<svg width="100.000000" height="100.000000" viewBox="0 0 100 100" fill="none" xmlns="http://www.w3.org/2000/svg" xmlns:xlink="http://www.w3.org/1999/xlink">
	<desc>
			Created with Pixso.
	</desc>
	<defs>
		<clipPath id="clip18_8">
			<rect id="logo-desktop" width="100.000000" height="100.000000" fill="white" fill-opacity="0"/>
		</clipPath>
		<linearGradient x1="12.285009" y1="52.460987" x2="102.092552" y2="47.127605" id="paint_linear_18_9_0" gradientUnits="userSpaceOnUse">
			<stop stop-color="#C0C6FB"/>
			<stop offset="1.000000" stop-color="#282AFF"/>
		</linearGradient>
		<linearGradient x1="6.326612" y1="52.026573" x2="74.159416" y2="44.223793" id="paint_linear_18_10_0" gradientUnits="userSpaceOnUse">
			<stop stop-color="#C1C7FB"/>
			<stop offset="1.000000" stop-color="#1314FF"/>
		</linearGradient>
	</defs>
	<g clip-path="url(#clip18_8)">
		<path id="path" d="M9.49 25.81C8.13 24.99 7.68 23.2 8.58 21.88C13.9 13.98 21.38 7.76 30.13 4C39.77 -0.14 50.46 -1.1 60.67 1.26C70.88 3.63 80.08 9.2 86.96 17.17C93.84 25.14 98.04 35.1 98.95 45.63C99.87 56.16 97.45 66.7 92.05 75.76C86.65 84.82 78.55 91.91 68.9 96.03C59.26 100.16 48.56 101.09 38.36 98.7C29.09 96.53 20.65 91.72 14.04 84.87C12.94 83.73 13.08 81.88 14.27 80.84C15.45 79.81 17.21 79.95 18.3 81.07C24.12 87.03 31.52 91.22 39.64 93.12C48.68 95.24 58.15 94.41 66.69 90.76C75.23 87.11 82.41 80.83 87.19 72.81C91.97 64.79 94.11 55.45 93.3 46.13C92.49 36.81 88.77 27.99 82.68 20.93C76.59 13.87 68.44 8.94 59.4 6.84C50.36 4.75 40.89 5.6 32.36 9.27C24.69 12.56 18.13 17.98 13.42 24.87C12.54 26.17 10.82 26.62 9.49 25.81Z" fill="url(#paint_linear_18_9_0)" fill-opacity="1.000000" fill-rule="nonzero"/>
		<path id="path" d="M10.87 36.5C9.41 36.57 8.29 37.84 8.37 39.33C8.44 40.82 9.69 41.97 11.15 41.9L27.34 41.09C26.12 41.54 25.31 42.77 25.42 44.15C25.55 45.8 26.97 47.03 28.59 46.9L34.52 46.43L21.46 49.61C19.87 50 18.9 51.63 19.3 53.26C19.67 54.75 21.08 55.72 22.55 55.56L35.75 55.57L6.15 59.92C4.4 60.17 3.19 61.81 3.45 63.59C3.71 65.37 5.34 66.61 7.08 66.36L71.45 57.14C72.87 56.94 73.93 55.81 74.14 54.44C74.18 54.25 74.2 54.05 74.21 53.85C74.26 52.03 72.85 50.51 71.06 50.46L48.27 49.81L68.2 45.35C70.02 44.94 71.16 43.1 70.74 41.24C70.77 41.03 70.77 40.78 70.75 40.55C70.62 38.9 69.2 37.66 67.58 37.79L56.95 38.64C57.3 38.15 57.49 37.54 57.46 36.9C57.39 35.41 56.14 34.26 54.68 34.33L10.87 36.5Z" fill="url(#paint_linear_18_10_0)" fill-opacity="1.000000" fill-rule="evenodd"/>
		<path id="path" d="M65.55 13.2L50.84 13.2C50.84 13.2 51.26 17.88 50.84 19.74C50.42 21.6 49.84 22.16 49.2 23.7L47.57 23.7L47.57 29.89L51.93 29.89L51.93 26.89L63.19 26.89L63.19 29.89L67.42 29.89L67.42 23.7L65.55 23.7L65.55 13.2Z" fill="#A8ADFC" fill-opacity="1.000000" fill-rule="nonzero"/>
		<path id="path" d="M60.4 16.2L55.98 16.2C55.98 16.2 56.04 18.18 55.74 19.68C55.44 21.18 55.11 21.99 54.71 23.46L60.4 23.46L60.4 16.2Z" fill="#0D0F42" fill-opacity="1.000000" fill-rule="nonzero"/>
		<path id="path" d="M30.02 17.3L30.02 13.2L46.48 13.2L46.48 17.3L41.01 17.3L41.01 29.89L35.61 29.89L35.61 17.3L30.02 17.3Z" fill="#A8ADFC" fill-opacity="1.000000" fill-rule="nonzero"/>
		<path id="path" d="M42 70.94L46.04 70.94C46.84 70.94 47.5 71.61 47.5 72.43C47.5 73.25 46.84 73.92 46.04 73.92L42 73.92L42 70.94Z" fill="#A8ADFC" fill-opacity="1.000000" fill-rule="nonzero"/>
		<path id="path" d="M42 73.92L46.04 73.92C47.02 73.92 47.81 74.73 47.81 75.73C47.81 76.73 47.02 77.55 46.04 77.55L42 77.55L42 73.92Z" fill="#A8ADFC" fill-opacity="1.000000" fill-rule="nonzero"/>
		<path id="path" d="M44.42 72.14L45.34 72.14C45.57 72.14 45.75 72.33 45.75 72.56C45.75 72.8 45.57 72.98 45.34 72.98L44.42 72.98L44.42 72.14Z" fill="#3436B4" fill-opacity="1.000000" fill-rule="nonzero"/>
		<path id="path" d="M44.42 74.91L45.22 74.91C45.52 74.91 45.75 75.15 45.75 75.45C45.75 75.74 45.52 75.99 45.22 75.99L44.42 75.99L44.42 74.91Z" fill="#3436B4" fill-opacity="1.000000" fill-rule="nonzero"/>
		<path id="path" d="M56.65 70.94L50 70.94C50 70.94 50.04 73.34 49.99 74.72C49.99 74.84 49.81 75.08 49.81 75.08L49.08 75.26L48.66 75.26L48.6 77.55L51.14 77.55L52.01 76.53L52.35 75.99L52.62 74.72L52.62 72.62L53.74 72.62L53.74 77.55L56.65 77.85L56.65 70.94Z" fill="#A8ADFC" fill-opacity="1.000000" fill-rule="nonzero"/>
		<path id="path" d="M38.79 70.94L35.59 70.94L33.04 77.55L35.95 77.55L36.31 76.24L38.13 76.24L38.37 77.55L41.28 77.55L38.79 70.94Z" fill="#A8ADFC" fill-opacity="1.000000" fill-rule="nonzero"/>
		<path id="path" d="M37.22 72.38L38.01 74.54L36.43 74.54L37.22 72.38Z" fill="#3436B4" fill-opacity="1.000000" fill-rule="nonzero"/>
		<path id="path" d="M78.2 70.94L75.35 70.94L73.23 79.47L75.66 79.95L75.96 78.57L77.65 78.57L77.96 80.43L80.62 80.79L78.2 70.94Z" fill="#A8ADFC" fill-opacity="1.000000" fill-rule="nonzero"/>
		<path id="path" d="M76.75 72.5L77.48 75.93L76.01 75.93L76.75 72.5Z" fill="#3436B4" fill-opacity="1.000000" fill-rule="nonzero"/>
		<path id="path" d="M67.73 71L64.94 71L64.94 78.45L67.73 78.81L67.73 75.39L69.24 79.11L72.14 79.41L70.03 74.72L72.45 71L69.42 71L67.73 74L67.73 71Z" fill="#A8ADFC" fill-opacity="1.000000" fill-rule="nonzero"/>
		<path id="path" d="M59.92 70.88L57.44 70.88L57.44 77.85L59.49 77.85L61.79 74.24L61.79 78.15L64.22 78.45L64.22 70.88L61.79 70.88L59.92 74.24L59.92 70.88Z" fill="#A8ADFC" fill-opacity="1.000000" fill-rule="nonzero"/>
		<path id="path" d="M29.78 70.94L27.23 70.94L27.23 77.55L29.78 77.43L29.78 75.51L31.29 75.51C32.53 75.51 33.53 74.48 33.53 73.22C33.53 71.96 32.53 70.94 31.29 70.94L29.78 70.94Z" fill="#A8ADFC" fill-opacity="1.000000" fill-rule="evenodd"/>
		<path id="path" d="M25.54 70.88L19.3 70.88C19.3 70.88 19.49 73.94 19.3 74.78C19.12 75.63 18.7 75.63 18.7 75.63L17.91 75.63L17.91 78.33L20.21 78.09L20.21 77.13L24.15 77.13L24.15 77.67L26.45 77.49L26.45 75.63L25.54 75.63L25.54 70.88Z" fill="#A8ADFC" fill-opacity="1.000000" fill-rule="nonzero"/>
		<path id="path" d="M22.87 72.02L21.77 72.02C21.77 72.02 21.77 74.29 21.53 74.76C21.3 75.23 21.3 75.19 21.3 75.19L21.06 75.63L22.87 75.63L22.87 72.02Z" fill="#3436B4" fill-opacity="1.000000" fill-rule="nonzero"/>
		<path id="path" d="M29.65 72.62L31 72.62C31.33 72.62 31.59 72.89 31.59 73.22C31.59 73.56 31.33 73.82 31 73.82L29.65 73.82L29.65 72.62Z" fill="#3436B4" fill-opacity="1.000000" fill-rule="nonzero"/>
		<path id="path" d="M12.46 70.94L9.8 70.94L9.8 79.53L12.46 79.05L14.52 75.15L14.52 78.69L17.12 78.39L17.12 70.94L14.52 70.94L12.46 74.91L12.46 70.94Z" fill="#A8ADFC" fill-opacity="1.000000" fill-rule="nonzero"/>
		<path id="path" d="M3.99 80.85L3.99 70.94L9.01 70.94L9.01 73.64L6.77 73.64L6.77 80.25L3.99 80.85Z" fill="#A8ADFC" fill-opacity="1.000000" fill-rule="nonzero"/>
	</g>
</svg>
